<svg width="340" height="72" viewBox="0 0 340 72" fill="none" xmlns="http://www.w3.org/2000/svg">
<g clip-path="url(#clip0_15_1146)">
<path d="M71.9999 -0.000126368V71.9999H-0.000126368V38.2895C1.22387 38.8511 2.47667 39.1967 3.78707 39.3407C5.74547 39.5567 8.19347 39.5999 11.1167 39.4703C13.1327 39.3551 14.7167 39.3407 15.8543 39.4127C16.9919 39.4847 18.0287 39.7295 18.9359 40.1471C19.8431 40.5647 20.4911 41.2703 20.8511 42.2783C21.2831 43.4735 21.1967 44.5679 20.5775 45.5615C19.9727 46.5407 18.9215 47.3039 17.4527 47.8367C16.0127 48.3551 14.7167 48.3695 13.5359 47.8943C12.3551 47.4191 11.4191 46.4543 10.7279 44.9999L0.143874 48.7871C1.18067 51.4367 2.75027 53.4527 4.83827 54.8495C6.92627 56.2463 9.33107 56.9951 12.0527 57.1247C14.7599 57.2543 17.6111 56.7647 20.5919 55.6991C23.6591 54.6047 26.1071 53.0927 27.9503 51.1631C29.7935 49.2335 30.9743 47.1023 31.4639 44.7839C31.9679 42.4655 31.7951 40.1327 30.9599 37.8143C30.0815 35.3807 28.7711 33.5951 27.0143 32.4719C25.2575 31.3487 23.4143 30.6863 21.4703 30.4559C19.5263 30.2255 17.0783 30.1535 14.1263 30.1967C11.1887 30.2975 8.95667 30.1967 7.45907 29.8943C5.94707 29.6063 4.96787 28.7999 4.49267 27.4751C4.06067 26.2799 4.10387 25.2143 4.60787 24.3215C5.11187 23.4143 5.97587 22.7519 7.17107 22.3199C8.56787 21.8159 9.84947 21.7871 11.0015 22.2191C12.1679 22.6511 13.0175 23.5151 13.5647 24.8111L24.3215 20.9519C22.7519 17.1791 20.2031 14.7167 16.6895 13.5503C13.1615 12.3839 9.15827 12.6143 4.66547 14.2271C2.90867 14.8607 1.35347 15.6095 -0.0145264 16.4735V-0.000126368H47.7647C45.4751 -0.000126368 43.0415 0.460674 40.4207 1.39667C35.9999 2.98067 32.8031 5.34227 30.8159 8.48147C28.8287 11.6207 28.5263 15.0911 29.8943 18.8783C30.8159 21.4415 32.1551 23.2991 33.9263 24.4511C35.6975 25.6031 37.5551 26.2943 39.5135 26.5103C41.4719 26.7263 43.9199 26.7695 46.8431 26.6399C48.8591 26.5247 50.4431 26.5103 51.5807 26.5823C52.7183 26.6543 53.7551 26.8991 54.6623 27.3167C55.5695 27.7343 56.2175 28.4399 56.5775 29.4479C57.0095 30.6431 56.9231 31.7375 56.3039 32.7311C55.6991 33.7103 54.6479 34.4735 53.1791 35.0063C51.7391 35.5247 50.4431 35.5391 49.2623 35.0639C48.0815 34.5887 47.1455 33.6239 46.4543 32.1695L35.8703 35.9567C36.9071 38.6063 38.4767 40.6223 40.5647 42.0191C42.6527 43.4159 45.0575 44.1647 47.7791 44.2943C50.4863 44.4095 53.3375 43.9343 56.3183 42.8687C59.3855 41.7743 61.8335 40.2623 63.6767 38.3327C65.5199 36.4031 66.7007 34.2719 67.1903 31.9535C67.6943 29.6351 67.5215 27.3023 66.6863 24.9839C65.8079 22.5359 64.4975 20.7647 62.7407 19.6415C60.9839 18.5183 59.1407 17.8559 57.1967 17.6255C55.2527 17.4095 52.8047 17.3231 49.8527 17.3663C46.9151 17.4527 44.6831 17.3663 43.1855 17.0639C41.6879 16.7759 40.6943 15.9695 40.2191 14.6447C39.7871 13.4495 39.8303 12.3839 40.3343 11.4911C40.8383 10.5839 41.7023 9.92147 42.8975 9.48947C44.2943 8.98547 45.5759 8.95667 46.7423 9.38867C47.9087 9.82067 48.7583 10.6847 49.3055 11.9807L60.0623 8.12147C58.4927 4.34867 55.9439 1.88627 52.4159 0.719874C50.9327 0.230274 49.3775 -0.0145264 47.7215 -0.0145264H71.9423L71.9999 -0.000126368Z" fill="white"/>
</g>
<path d="M254.966 62.21C253.026 62.21 251.256 61.76 249.656 60.86C248.056 59.94 246.786 58.67 245.846 57.05C244.926 55.41 244.466 53.57 244.466 51.53C244.466 49.49 244.926 47.66 245.846 46.04C246.786 44.4 248.056 43.13 249.656 42.23C251.256 41.31 253.026 40.85 254.966 40.85C256.926 40.85 258.706 41.31 260.306 42.23C261.906 43.13 263.166 44.39 264.086 46.01C265.006 47.63 265.466 49.47 265.466 51.53C265.466 53.59 265.006 55.43 264.086 57.05C263.166 58.67 261.906 59.94 260.306 60.86C258.706 61.76 256.926 62.21 254.966 62.21ZM254.966 59.84C256.426 59.84 257.736 59.5 258.896 58.82C260.076 58.14 260.996 57.17 261.656 55.91C262.336 54.65 262.676 53.19 262.676 51.53C262.676 49.85 262.336 48.39 261.656 47.15C260.996 45.89 260.086 44.92 258.926 44.24C257.766 43.56 256.446 43.22 254.966 43.22C253.486 43.22 252.166 43.56 251.006 44.24C249.846 44.92 248.926 45.89 248.246 47.15C247.586 48.39 247.256 49.85 247.256 51.53C247.256 53.19 247.586 54.65 248.246 55.91C248.926 57.17 249.846 58.14 251.006 58.82C252.186 59.5 253.506 59.84 254.966 59.84Z" fill="white"/>
<path d="M226.133 41.09V62H223.403V41.09H226.133Z" fill="white"/>
<path d="M194.002 41.09C196.282 41.09 198.252 41.52 199.912 42.38C201.592 43.22 202.872 44.43 203.752 46.01C204.652 47.59 205.102 49.45 205.102 51.59C205.102 53.73 204.652 55.59 203.752 57.17C202.872 58.73 201.592 59.93 199.912 60.77C198.252 61.59 196.282 62 194.002 62H187.492V41.09H194.002ZM194.002 59.75C196.702 59.75 198.762 59.04 200.182 57.62C201.602 56.18 202.312 54.17 202.312 51.59C202.312 48.99 201.592 46.96 200.152 45.5C198.732 44.04 196.682 43.31 194.002 43.31H190.222V59.75H194.002Z" fill="white"/>
<path d="M155.218 41.09V54.32C155.218 56.18 155.668 57.56 156.568 58.46C157.488 59.36 158.758 59.81 160.378 59.81C161.978 59.81 163.228 59.36 164.128 58.46C165.048 57.56 165.508 56.18 165.508 54.32V41.09H168.238V54.29C168.238 56.03 167.888 57.5 167.188 58.7C166.488 59.88 165.538 60.76 164.338 61.34C163.158 61.92 161.828 62.21 160.348 62.21C158.868 62.21 157.528 61.92 156.328 61.34C155.148 60.76 154.208 59.88 153.508 58.7C152.828 57.5 152.488 56.03 152.488 54.29V41.09H155.218Z" fill="white"/>
<path d="M134.487 41.09V43.31H128.787V62H126.057V43.31H120.327V41.09H134.487Z" fill="white"/>
<path d="M95.9401 62.21C94.5601 62.21 93.3201 61.97 92.2201 61.49C91.1401 60.99 90.2901 60.31 89.6701 59.45C89.0501 58.57 88.7301 57.56 88.7101 56.42H91.6201C91.7201 57.4 92.1201 58.23 92.8201 58.91C93.5401 59.57 94.5801 59.9 95.9401 59.9C97.2401 59.9 98.2601 59.58 99.0001 58.94C99.7601 58.28 100.14 57.44 100.14 56.42C100.14 55.62 99.9201 54.97 99.4801 54.47C99.0401 53.97 98.4901 53.59 97.8301 53.33C97.1701 53.07 96.2801 52.79 95.1601 52.49C93.7801 52.13 92.6701 51.77 91.8301 51.41C91.0101 51.05 90.3001 50.49 89.7001 49.73C89.1201 48.95 88.8301 47.91 88.8301 46.61C88.8301 45.47 89.1201 44.46 89.7001 43.58C90.2801 42.7 91.0901 42.02 92.1301 41.54C93.1901 41.06 94.4001 40.82 95.7601 40.82C97.7201 40.82 99.3201 41.31 100.56 42.29C101.82 43.27 102.53 44.57 102.69 46.19H99.6901C99.5901 45.39 99.1701 44.69 98.4301 44.09C97.6901 43.47 96.7101 43.16 95.4901 43.16C94.3501 43.16 93.4201 43.46 92.7001 44.06C91.9801 44.64 91.6201 45.46 91.6201 46.52C91.6201 47.28 91.8301 47.9 92.2501 48.38C92.6901 48.86 93.2201 49.23 93.8401 49.49C94.4801 49.73 95.3701 50.01 96.5101 50.33C97.8901 50.71 99.0001 51.09 99.8401 51.47C100.68 51.83 101.4 52.4 102 53.18C102.6 53.94 102.9 54.98 102.9 56.3C102.9 57.32 102.63 58.28 102.09 59.18C101.55 60.08 100.75 60.81 99.6901 61.37C98.6301 61.93 97.3801 62.21 95.9401 62.21Z" fill="white"/>
<path d="M331.137 38L325.537 27.6H324.697V38H316.857V9.79999H329.217C331.484 9.79999 333.404 10.2 334.977 11C336.551 11.7733 337.737 12.8533 338.537 14.24C339.337 15.6 339.737 17.1333 339.737 18.84C339.737 20.76 339.204 22.4533 338.137 23.92C337.097 25.36 335.564 26.3867 333.537 27L339.897 38H331.137ZM324.697 22.24H328.577C329.644 22.24 330.444 21.9867 330.977 21.48C331.511 20.9733 331.777 20.24 331.777 19.28C331.777 18.3733 331.497 17.6667 330.937 17.16C330.404 16.6267 329.617 16.36 328.577 16.36H324.697V22.24Z" fill="white"/>
<path d="M302.783 16.08V20.68H311.783V26.64H302.783V31.72H312.983V38H294.943V9.79999H312.983V16.08H302.783Z" fill="white"/>
<path d="M280.778 38.28C277.498 38.28 274.805 37.5067 272.698 35.96C270.592 34.3867 269.458 32.1467 269.298 29.24H277.658C277.738 30.2267 278.032 30.9467 278.538 31.4C279.045 31.8533 279.698 32.08 280.498 32.08C281.218 32.08 281.805 31.9067 282.258 31.56C282.738 31.1867 282.978 30.68 282.978 30.04C282.978 29.2133 282.592 28.5733 281.818 28.12C281.045 27.6667 279.792 27.16 278.058 26.6C276.218 25.9867 274.725 25.4 273.578 24.84C272.458 24.2533 271.472 23.4133 270.618 22.32C269.792 21.2 269.378 19.7467 269.378 17.96C269.378 16.1467 269.832 14.6 270.738 13.32C271.645 12.0133 272.898 11.0267 274.498 10.36C276.098 9.69332 277.912 9.35999 279.938 9.35999C283.218 9.35999 285.832 10.1333 287.778 11.68C289.752 13.2 290.805 15.3467 290.938 18.12H282.418C282.392 17.2667 282.125 16.6267 281.618 16.2C281.138 15.7733 280.512 15.56 279.738 15.56C279.152 15.56 278.672 15.7333 278.298 16.08C277.925 16.4267 277.738 16.92 277.738 17.56C277.738 18.0933 277.938 18.56 278.338 18.96C278.765 19.3333 279.285 19.6667 279.898 19.96C280.512 20.2267 281.418 20.5733 282.618 21C284.405 21.6133 285.872 22.2267 287.018 22.84C288.192 23.4267 289.192 24.2667 290.018 25.36C290.872 26.4267 291.298 27.7867 291.298 29.44C291.298 31.12 290.872 32.6267 290.018 33.96C289.192 35.2933 287.978 36.3467 286.378 37.12C284.805 37.8933 282.938 38.28 280.778 38.28Z" fill="white"/>
<path d="M255.974 38.28C252.694 38.28 250 37.5067 247.894 35.96C245.787 34.3867 244.654 32.1467 244.494 29.24H252.854C252.934 30.2267 253.227 30.9467 253.734 31.4C254.24 31.8533 254.894 32.08 255.694 32.08C256.414 32.08 257 31.9067 257.454 31.56C257.934 31.1867 258.174 30.68 258.174 30.04C258.174 29.2133 257.787 28.5733 257.014 28.12C256.24 27.6667 254.987 27.16 253.254 26.6C251.414 25.9867 249.92 25.4 248.774 24.84C247.654 24.2533 246.667 23.4133 245.814 22.32C244.987 21.2 244.574 19.7467 244.574 17.96C244.574 16.1467 245.027 14.6 245.934 13.32C246.84 12.0133 248.094 11.0267 249.694 10.36C251.294 9.69332 253.107 9.35999 255.134 9.35999C258.414 9.35999 261.027 10.1333 262.974 11.68C264.947 13.2 266 15.3467 266.134 18.12H257.614C257.587 17.2667 257.32 16.6267 256.814 16.2C256.334 15.7733 255.707 15.56 254.934 15.56C254.347 15.56 253.867 15.7333 253.494 16.08C253.12 16.4267 252.934 16.92 252.934 17.56C252.934 18.0933 253.134 18.56 253.534 18.96C253.96 19.3333 254.48 19.6667 255.094 19.96C255.707 20.2267 256.614 20.5733 257.814 21C259.6 21.6133 261.067 22.2267 262.214 22.84C263.387 23.4267 264.387 24.2667 265.214 25.36C266.067 26.4267 266.494 27.7867 266.494 29.44C266.494 31.12 266.067 32.6267 265.214 33.96C264.387 35.2933 263.174 36.3467 261.574 37.12C260 37.8933 258.134 38.28 255.974 38.28Z" fill="white"/>
<path d="M227.369 38.28C224.729 38.28 222.303 37.6667 220.089 36.44C217.876 35.1867 216.116 33.4667 214.809 31.28C213.529 29.0667 212.889 26.5733 212.889 23.8C212.889 21.0267 213.529 18.5467 214.809 16.36C216.116 14.1467 217.876 12.4267 220.089 11.2C222.303 9.97332 224.729 9.35999 227.369 9.35999C230.036 9.35999 232.463 9.97332 234.649 11.2C236.863 12.4267 238.609 14.1467 239.889 16.36C241.169 18.5467 241.809 21.0267 241.809 23.8C241.809 26.5733 241.169 29.0667 239.889 31.28C238.609 33.4667 236.863 35.1867 234.649 36.44C232.436 37.6667 230.009 38.28 227.369 38.28ZM227.369 31C229.369 31 230.943 30.3467 232.089 29.04C233.263 27.7333 233.849 25.9867 233.849 23.8C233.849 21.56 233.263 19.8 232.089 18.52C230.943 17.2133 229.369 16.56 227.369 16.56C225.343 16.56 223.756 17.2133 222.609 18.52C221.463 19.8 220.889 21.56 220.889 23.8C220.889 26.0133 221.463 27.7733 222.609 29.08C223.756 30.36 225.343 31 227.369 31Z" fill="white"/>
<path d="M210.7 19.2C210.7 20.9067 210.3 22.4667 209.5 23.88C208.726 25.2667 207.54 26.3867 205.94 27.24C204.366 28.0667 202.433 28.48 200.14 28.48H196.26V38H188.42V9.79999H200.14C202.406 9.79999 204.326 10.2 205.9 11C207.5 11.8 208.7 12.9067 209.5 14.32C210.3 15.7333 210.7 17.36 210.7 19.2ZM199.38 22.24C201.593 22.24 202.7 21.2267 202.7 19.2C202.7 17.1467 201.593 16.12 199.38 16.12H196.26V22.24H199.38Z" fill="white"/>
<path d="M183.957 9.79999V38H176.117V22.44L170.797 38H164.237L158.877 22.32V38H151.037V9.79999H160.517L167.597 28.12L174.517 9.79999H183.957Z" fill="white"/>
<path d="M133.073 38.28C130.433 38.28 128.006 37.6667 125.793 36.44C123.579 35.1867 121.819 33.4667 120.513 31.28C119.233 29.0667 118.593 26.5733 118.593 23.8C118.593 21.0267 119.233 18.5467 120.513 16.36C121.819 14.1467 123.579 12.4267 125.793 11.2C128.006 9.97332 130.433 9.35999 133.073 9.35999C135.739 9.35999 138.166 9.97332 140.353 11.2C142.566 12.4267 144.313 14.1467 145.593 16.36C146.873 18.5467 147.513 21.0267 147.513 23.8C147.513 26.5733 146.873 29.0667 145.593 31.28C144.313 33.4667 142.566 35.1867 140.353 36.44C138.139 37.6667 135.713 38.28 133.073 38.28ZM133.073 31C135.073 31 136.646 30.3467 137.793 29.04C138.966 27.7333 139.553 25.9867 139.553 23.8C139.553 21.56 138.966 19.8 137.793 18.52C136.646 17.2133 135.073 16.56 133.073 16.56C131.046 16.56 129.459 17.2133 128.313 18.52C127.166 19.8 126.593 21.56 126.593 23.8C126.593 26.0133 127.166 27.7733 128.313 29.08C129.459 30.36 131.046 31 133.073 31Z" fill="white"/>
<path d="M88.28 23.84C88.28 21.0667 88.8534 18.6 90 16.44C91.1734 14.2533 92.8267 12.56 94.96 11.36C97.0934 10.1333 99.5467 9.51999 102.32 9.51999C105.84 9.51999 108.8 10.4667 111.2 12.36C113.6 14.2267 115.147 16.7733 115.84 20H107.4C106.893 18.9333 106.187 18.12 105.28 17.56C104.4 17 103.373 16.72 102.2 16.72C100.387 16.72 98.9334 17.3733 97.84 18.68C96.7734 19.96 96.24 21.68 96.24 23.84C96.24 26.0267 96.7734 27.7733 97.84 29.08C98.9334 30.36 100.387 31 102.2 31C103.373 31 104.4 30.72 105.28 30.16C106.187 29.6 106.893 28.7867 107.4 27.72H115.84C115.147 30.9467 113.6 33.5067 111.2 35.4C108.8 37.2667 105.84 38.2 102.32 38.2C99.5467 38.2 97.0934 37.6 94.96 36.4C92.8267 35.1733 91.1734 33.48 90 31.32C88.8534 29.1333 88.28 26.64 88.28 23.84Z" fill="white"/>
<defs>
<clipPath id="clip0_15_1146">
<rect width="72" height="72" fill="white"/>
</clipPath>
</defs>
</svg>
