<svg width="87" height="87" viewBox="0 0 87 87" fill="none" xmlns="http://www.w3.org/2000/svg">
<g filter="url(#filter0_d_10_451)">
<g clip-path="url(#clip0_10_451)">
<path d="M11.6788 65.3962C7.16 64.1006 3.8736 61.0512 1.788 56.2796L15.8184 51.0498C16.5768 52.6614 17.509 53.6884 18.6466 54.1308C19.7842 54.5732 21.0166 54.5416 22.3596 54.0518C23.5604 53.6094 24.4452 52.93 25.014 52.0294C25.567 51.1288 25.646 50.1492 25.251 49.0748C24.7296 47.6844 23.6868 46.8628 22.1068 46.5784C20.5268 46.294 18.1094 46.2308 14.8388 46.373C11.3628 46.4994 8.503 46.4362 6.2436 46.1676C3.9842 45.9148 1.80379 45.1248 -0.297605 43.7818C-2.39901 42.4546 -4.0106 40.29 -5.1324 37.288C-6.27 34.2386 -6.4754 31.3472 -5.7644 28.6138C-5.0534 25.8804 -3.5682 23.4472 -1.293 21.33C0.982195 19.2128 3.8104 17.5222 7.2074 16.2582C12.7058 14.2042 17.588 13.8566 21.8382 15.1996C26.0884 16.5426 29.1852 19.513 31.1444 24.0792L16.8454 29.4038C16.2608 27.9818 15.4234 27.0812 14.3332 26.6704C13.243 26.2596 12.0422 26.307 10.7466 26.781C9.451 27.255 9.0718 27.7448 8.661 28.5506C8.2502 29.3722 8.2502 30.3044 8.661 31.3788C8.9928 32.2794 9.6248 32.9114 10.557 33.3064C11.4892 33.7014 12.5636 33.9384 13.7644 34.0174C14.9652 34.0964 16.719 34.128 18.9942 34.0964C22.3754 34.0174 25.2352 34.0964 27.5578 34.3808C29.8804 34.6652 32.0766 35.4394 34.1622 36.735C36.2478 38.0148 37.812 40.053 38.839 42.8338C39.8818 45.6462 40.1188 48.4428 39.55 51.2078C38.9812 53.9728 37.5908 56.5008 35.4104 58.7918C33.23 61.0828 30.3228 62.8998 26.7046 64.2586C21.2062 66.3126 16.1976 66.6918 11.6788 65.3804V65.3962Z" fill="#DF3311"/>
<path d="M53.3118 49.8964C48.793 48.6008 45.5066 45.5514 43.421 40.7798L57.4514 35.55C58.2098 37.1616 59.142 38.1886 60.2796 38.631C61.4172 39.0734 62.6496 39.0418 63.9926 38.552C65.1934 38.1096 66.0782 37.4302 66.647 36.5296C67.2 35.629 67.279 34.6494 66.884 33.575C66.489 32.5006 65.3198 31.363 63.7398 31.0786C62.1598 30.7942 59.7424 30.731 56.4718 30.8732C52.9958 30.9996 50.136 30.9364 47.8766 30.6678C45.6172 30.415 43.4368 29.625 41.3354 28.282C39.234 26.9548 37.6224 24.7902 36.5006 21.7882C35.363 18.7388 35.1576 15.8474 35.8686 13.114C36.5796 10.3806 38.0648 7.9474 40.34 5.8302C42.6152 3.713 45.4434 2.0224 48.8404 0.758399C54.3388 -1.2956 59.221 -1.6432 63.4712 -0.300201C67.7214 1.0428 70.8182 4.0132 72.7774 8.5794L58.4784 13.904C57.8938 12.482 57.0564 11.5814 55.9662 11.1706C54.876 10.7598 53.6752 10.8072 52.3796 11.2812C51.4 11.6446 50.7048 12.245 50.294 13.0508C49.8832 13.8724 49.8832 14.8046 50.294 15.879C50.6258 16.7796 51.2578 17.4116 52.19 17.8066C53.1222 18.2016 54.1966 18.4386 55.3974 18.5176C56.5982 18.5966 58.352 18.6282 60.6272 18.5966C64.0084 18.5176 66.8682 18.5966 69.1908 18.881C71.5134 19.1654 73.7096 19.9396 75.7952 21.2352C77.8808 22.515 79.445 24.5532 80.472 27.334C81.5148 30.1464 81.7518 32.943 81.183 35.708C80.6142 38.473 79.2238 41.001 77.0434 43.292C74.863 45.583 71.9558 47.4 68.3376 48.7588C62.8392 50.8128 57.8306 51.192 53.3118 49.8806V49.8964Z" fill="#DF3311"/>
</g>
<rect x="4.5" y="0.5" width="78" height="78" stroke="#DF3311" shape-rendering="crispEdges"/>
</g>
<defs>
<filter id="filter0_d_10_451" x="0" y="0" width="87" height="87" filterUnits="userSpaceOnUse" color-interpolation-filters="sRGB">
<feFlood flood-opacity="0" result="BackgroundImageFix"/>
<feColorMatrix in="SourceAlpha" type="matrix" values="0 0 0 0 0 0 0 0 0 0 0 0 0 0 0 0 0 0 127 0" result="hardAlpha"/>
<feOffset dy="4"/>
<feGaussianBlur stdDeviation="2"/>
<feComposite in2="hardAlpha" operator="out"/>
<feColorMatrix type="matrix" values="0 0 0 0 0 0 0 0 0 0 0 0 0 0 0 0 0 0 0.25 0"/>
<feBlend mode="normal" in2="BackgroundImageFix" result="effect1_dropShadow_10_451"/>
<feBlend mode="normal" in="SourceGraphic" in2="effect1_dropShadow_10_451" result="shape"/>
</filter>
<clipPath id="clip0_10_451">
<rect x="4" width="79" height="79" fill="white"/>
</clipPath>
</defs>
</svg>
