<svg width="95" height="115" viewBox="0 0 95 115" fill="none" xmlns="http://www.w3.org/2000/svg">
<g clip-path="url(#clip0_57_14)">
<path d="M93.9998 -0.000151416V93.9998H-0.000242969V49.989C1.59776 50.7222 3.23336 51.1735 4.94416 51.3615C7.50096 51.6435 10.697 51.6998 14.5134 51.5306C17.1454 51.3802 19.2134 51.3615 20.6986 51.4555C22.1838 51.5495 23.5374 51.869 24.7218 52.4142C25.9062 52.9594 26.7522 53.8806 27.2222 55.1966C27.7862 56.757 27.6734 58.1858 26.865 59.483C26.0754 60.7614 24.703 61.7579 22.7854 62.4534C20.9054 63.1302 19.2134 63.149 17.6718 62.5286C16.1302 61.9082 14.9082 60.6486 14.0058 58.7498L0.187757 63.6942C1.54136 67.1534 3.59056 69.7854 6.31656 71.609C9.04256 73.4326 12.1822 74.4103 15.7354 74.5795C19.2698 74.7486 22.9922 74.1094 26.8838 72.7182C30.8882 71.2894 34.0842 69.3154 36.4906 66.7962C38.897 64.277 40.4386 61.4946 41.0778 58.4678C41.7358 55.441 41.5102 52.3954 40.4198 49.3686C39.273 46.1914 37.5622 43.8602 35.2686 42.3938C32.975 40.9274 30.5686 40.0626 28.0306 39.7618C25.4926 39.461 22.2966 39.367 18.4426 39.4234C14.6074 39.555 11.6934 39.4234 9.73816 39.0286C7.76416 38.6526 6.48576 37.5998 5.86536 35.8703C5.30136 34.3099 5.35776 32.9186 6.01576 31.753C6.67376 30.5686 7.80176 29.7038 9.36216 29.1398C11.1858 28.4818 12.859 28.4443 14.363 29.0082C15.8858 29.5722 16.995 30.7003 17.7094 32.3923L31.753 27.3538C29.7038 22.4282 26.3762 19.2134 21.789 17.6906C17.183 16.1678 11.9566 16.4686 6.09096 18.5742C3.79736 19.4014 1.76696 20.379 -0.019043 21.507V-0.000151416H62.3594C59.3702 -0.000151416 56.193 0.601449 52.7714 1.82345C46.9998 3.89145 42.8262 6.97465 40.2318 11.073C37.6374 15.1714 37.2426 19.7023 39.0286 24.6467C40.2318 27.993 41.9802 30.4182 44.2926 31.9222C46.605 33.4263 49.0302 34.3286 51.587 34.6106C54.1438 34.8927 57.3398 34.9491 61.1562 34.7799C63.7882 34.6295 65.8562 34.6106 67.3414 34.7047C68.8266 34.7987 70.1802 35.1182 71.3646 35.6634C72.549 36.2086 73.395 37.1298 73.865 38.4458C74.429 40.0062 74.3162 41.4351 73.5078 42.7323C72.7182 44.0107 71.3458 45.007 69.4282 45.7026C67.5482 46.3794 65.8562 46.3982 64.3146 45.7778C62.773 45.1574 61.551 43.8978 60.6486 41.999L46.8306 46.9434C48.1842 50.4026 50.2334 53.0346 52.9594 54.8582C55.6854 56.6818 58.825 57.6594 62.3782 57.8286C65.9126 57.979 69.635 57.3587 73.5266 55.9674C77.531 54.5387 80.727 52.5647 83.1334 50.0455C85.5398 47.5263 87.0814 44.7438 87.7206 41.717C88.3786 38.6903 88.153 35.6446 87.0626 32.6178C85.9158 29.4218 84.205 27.1094 81.9114 25.643C79.6178 24.1766 77.2114 23.3118 74.6734 23.011C72.1354 22.729 68.9394 22.6162 65.0854 22.6726C61.2502 22.7854 58.3362 22.6726 56.381 22.2778C54.4258 21.9018 53.1286 20.849 52.5082 19.1194C51.9442 17.559 52.0006 16.1678 52.6586 15.0022C53.3166 13.8178 54.4446 12.953 56.005 12.389C57.8286 11.731 59.5018 11.6934 61.0246 12.2574C62.5474 12.8214 63.6566 13.9494 64.371 15.6414L78.4146 10.603C76.3654 5.67745 73.0378 2.46265 68.4318 0.939849C66.4954 0.300649 64.465 -0.0189514 62.303 -0.0189514H93.9246L93.9998 -0.000151416Z" fill="#DF3311"/>
</g>
<path d="M91.5515 114L89.4515 110.1H89.1365V114H86.1965V103.425H90.8315C91.6815 103.425 92.4015 103.575 92.9915 103.875C93.5815 104.165 94.0265 104.57 94.3265 105.09C94.6265 105.6 94.7765 106.175 94.7765 106.815C94.7765 107.535 94.5765 108.17 94.1765 108.72C93.7865 109.26 93.2115 109.645 92.4515 109.875L94.8365 114H91.5515ZM89.1365 108.09H90.5915C90.9915 108.09 91.2915 107.995 91.4915 107.805C91.6915 107.615 91.7915 107.34 91.7915 106.98C91.7915 106.64 91.6865 106.375 91.4765 106.185C91.2765 105.985 90.9815 105.885 90.5915 105.885H89.1365V108.09Z" fill="white"/>
<path d="M80.9188 105.78V107.505H84.2938V109.74H80.9188V111.645H84.7438V114H77.9788V103.425H84.7438V105.78H80.9188Z" fill="white"/>
<path d="M72.6668 114.105C71.4368 114.105 70.4268 113.815 69.6368 113.235C68.8468 112.645 68.4218 111.805 68.3618 110.715H71.4968C71.5268 111.085 71.6368 111.355 71.8268 111.525C72.0168 111.695 72.2618 111.78 72.5618 111.78C72.8318 111.78 73.0518 111.715 73.2218 111.585C73.4018 111.445 73.4918 111.255 73.4918 111.015C73.4918 110.705 73.3468 110.465 73.0568 110.295C72.7668 110.125 72.2968 109.935 71.6468 109.725C70.9568 109.495 70.3968 109.275 69.9668 109.065C69.5468 108.845 69.1768 108.53 68.8568 108.12C68.5468 107.7 68.3918 107.155 68.3918 106.485C68.3918 105.805 68.5618 105.225 68.9018 104.745C69.2418 104.255 69.7118 103.885 70.3118 103.635C70.9118 103.385 71.5918 103.26 72.3518 103.26C73.5818 103.26 74.5618 103.55 75.2918 104.13C76.0318 104.7 76.4268 105.505 76.4768 106.545H73.2818C73.2718 106.225 73.1718 105.985 72.9818 105.825C72.8018 105.665 72.5668 105.585 72.2768 105.585C72.0568 105.585 71.8768 105.65 71.7368 105.78C71.5968 105.91 71.5268 106.095 71.5268 106.335C71.5268 106.535 71.6018 106.71 71.7518 106.86C71.9118 107 72.1068 107.125 72.3368 107.235C72.5668 107.335 72.9068 107.465 73.3568 107.625C74.0268 107.855 74.5768 108.085 75.0068 108.315C75.4468 108.535 75.8218 108.85 76.1318 109.26C76.4518 109.66 76.6118 110.17 76.6118 110.79C76.6118 111.42 76.4518 111.985 76.1318 112.485C75.8218 112.985 75.3668 113.38 74.7668 113.67C74.1768 113.96 73.4768 114.105 72.6668 114.105Z" fill="white"/>
<path d="M63.3651 114.105C62.1351 114.105 61.1251 113.815 60.3351 113.235C59.5451 112.645 59.1201 111.805 59.0601 110.715H62.1951C62.2251 111.085 62.3351 111.355 62.5251 111.525C62.7151 111.695 62.9601 111.78 63.2601 111.78C63.5301 111.78 63.7501 111.715 63.9201 111.585C64.1001 111.445 64.1901 111.255 64.1901 111.015C64.1901 110.705 64.0451 110.465 63.7551 110.295C63.4651 110.125 62.9951 109.935 62.3451 109.725C61.6551 109.495 61.0951 109.275 60.6651 109.065C60.2451 108.845 59.8751 108.53 59.5551 108.12C59.2451 107.7 59.0901 107.155 59.0901 106.485C59.0901 105.805 59.2601 105.225 59.6001 104.745C59.9401 104.255 60.4101 103.885 61.0101 103.635C61.6101 103.385 62.2901 103.26 63.0501 103.26C64.2801 103.26 65.2601 103.55 65.9901 104.13C66.7301 104.7 67.1251 105.505 67.1751 106.545H63.9801C63.9701 106.225 63.8701 105.985 63.6801 105.825C63.5001 105.665 63.2651 105.585 62.9751 105.585C62.7551 105.585 62.5751 105.65 62.4351 105.78C62.2951 105.91 62.2251 106.095 62.2251 106.335C62.2251 106.535 62.3001 106.71 62.4501 106.86C62.6101 107 62.8051 107.125 63.0351 107.235C63.2651 107.335 63.6051 107.465 64.0551 107.625C64.7251 107.855 65.2751 108.085 65.7051 108.315C66.1451 108.535 66.5201 108.85 66.8301 109.26C67.1501 109.66 67.3101 110.17 67.3101 110.79C67.3101 111.42 67.1501 111.985 66.8301 112.485C66.5201 112.985 66.0651 113.38 65.4651 113.67C64.8751 113.96 64.1751 114.105 63.3651 114.105Z" fill="white"/>
<path d="M52.6385 114.105C51.6485 114.105 50.7385 113.875 49.9085 113.415C49.0785 112.945 48.4185 112.3 47.9285 111.48C47.4485 110.65 47.2085 109.715 47.2085 108.675C47.2085 107.635 47.4485 106.705 47.9285 105.885C48.4185 105.055 49.0785 104.41 49.9085 103.95C50.7385 103.49 51.6485 103.26 52.6385 103.26C53.6385 103.26 54.5485 103.49 55.3685 103.95C56.1985 104.41 56.8535 105.055 57.3335 105.885C57.8135 106.705 58.0535 107.635 58.0535 108.675C58.0535 109.715 57.8135 110.65 57.3335 111.48C56.8535 112.3 56.1985 112.945 55.3685 113.415C54.5385 113.875 53.6285 114.105 52.6385 114.105ZM52.6385 111.375C53.3885 111.375 53.9785 111.13 54.4085 110.64C54.8485 110.15 55.0685 109.495 55.0685 108.675C55.0685 107.835 54.8485 107.175 54.4085 106.695C53.9785 106.205 53.3885 105.96 52.6385 105.96C51.8785 105.96 51.2835 106.205 50.8535 106.695C50.4235 107.175 50.2085 107.835 50.2085 108.675C50.2085 109.505 50.4235 110.165 50.8535 110.655C51.2835 111.135 51.8785 111.375 52.6385 111.375Z" fill="white"/>
<path d="M46.3875 106.95C46.3875 107.59 46.2375 108.175 45.9375 108.705C45.6475 109.225 45.2025 109.645 44.6025 109.965C44.0125 110.275 43.2875 110.43 42.4275 110.43H40.9725V114H38.0325V103.425H42.4275C43.2775 103.425 43.9975 103.575 44.5875 103.875C45.1875 104.175 45.6375 104.59 45.9375 105.12C46.2375 105.65 46.3875 106.26 46.3875 106.95ZM42.1425 108.09C42.9725 108.09 43.3875 107.71 43.3875 106.95C43.3875 106.18 42.9725 105.795 42.1425 105.795H40.9725V108.09H42.1425Z" fill="white"/>
<path d="M36.3589 103.425V114H33.4189V108.165L31.4239 114H28.9639L26.9539 108.12V114H24.0139V103.425H27.5689L30.2239 110.295L32.8189 103.425H36.3589Z" fill="white"/>
<path d="M17.2772 114.105C16.2872 114.105 15.3772 113.875 14.5472 113.415C13.7172 112.945 13.0572 112.3 12.5672 111.48C12.0872 110.65 11.8472 109.715 11.8472 108.675C11.8472 107.635 12.0872 106.705 12.5672 105.885C13.0572 105.055 13.7172 104.41 14.5472 103.95C15.3772 103.49 16.2872 103.26 17.2772 103.26C18.2772 103.26 19.1872 103.49 20.0072 103.95C20.8372 104.41 21.4922 105.055 21.9722 105.885C22.4522 106.705 22.6922 107.635 22.6922 108.675C22.6922 109.715 22.4522 110.65 21.9722 111.48C21.4922 112.3 20.8372 112.945 20.0072 113.415C19.1772 113.875 18.2672 114.105 17.2772 114.105ZM17.2772 111.375C18.0272 111.375 18.6172 111.13 19.0472 110.64C19.4872 110.15 19.7072 109.495 19.7072 108.675C19.7072 107.835 19.4872 107.175 19.0472 106.695C18.6172 106.205 18.0272 105.96 17.2772 105.96C16.5172 105.96 15.9222 106.205 15.4922 106.695C15.0622 107.175 14.8472 107.835 14.8472 108.675C14.8472 109.505 15.0622 110.165 15.4922 110.655C15.9222 111.135 16.5172 111.375 17.2772 111.375Z" fill="white"/>
<path d="M0.47998 108.69C0.47998 107.65 0.69498 106.725 1.12498 105.915C1.56498 105.095 2.18498 104.46 2.98498 104.01C3.78498 103.55 4.70498 103.32 5.74498 103.32C7.06498 103.32 8.17498 103.675 9.07498 104.385C9.97498 105.085 10.555 106.04 10.815 107.25H7.64998C7.45998 106.85 7.19498 106.545 6.85498 106.335C6.52498 106.125 6.13998 106.02 5.69998 106.02C5.01998 106.02 4.47498 106.265 4.06498 106.755C3.66498 107.235 3.46498 107.88 3.46498 108.69C3.46498 109.51 3.66498 110.165 4.06498 110.655C4.47498 111.135 5.01998 111.375 5.69998 111.375C6.13998 111.375 6.52498 111.27 6.85498 111.06C7.19498 110.85 7.45998 110.545 7.64998 110.145H10.815C10.555 111.355 9.97498 112.315 9.07498 113.025C8.17498 113.725 7.06498 114.075 5.74498 114.075C4.70498 114.075 3.78498 113.85 2.98498 113.4C2.18498 112.94 1.56498 112.305 1.12498 111.495C0.69498 110.675 0.47998 109.74 0.47998 108.69Z" fill="white"/>
<defs>
<clipPath id="clip0_57_14">
<rect width="94" height="94" fill="white"/>
</clipPath>
</defs>
</svg>
